<svg width="200" height="200" viewBox="0 0 200 200" fill="none" xmlns="http://www.w3.org/2000/svg">
  <rect width="200" height="200" rx="40" fill="url(#gradient)"/>
  
  <!-- Grid pattern representing GitHub contributions -->
  <g opacity="0.9">
    <!-- Row 1 -->
    <rect x="30" y="30" width="20" height="20" rx="4" fill="rgba(255,255,255,0.8)"/>
    <rect x="60" y="30" width="20" height="20" rx="4" fill="rgba(255,255,255,0.6)"/>
    <rect x="90" y="30" width="20" height="20" rx="4" fill="rgba(255,255,255,0.4)"/>
    <rect x="120" y="30" width="20" height="20" rx="4" fill="rgba(255,255,255,0.2)"/>
    <rect x="150" y="30" width="20" height="20" rx="4" fill="rgba(255,255,255,0.1)"/>
    
    <!-- Row 2 -->
    <rect x="30" y="60" width="20" height="20" rx="4" fill="rgba(255,255,255,0.7)"/>
    <rect x="60" y="60" width="20" height="20" rx="4" fill="rgba(255,255,255,0.5)"/>
    <rect x="90" y="60" width="20" height="20" rx="4" fill="rgba(255,255,255,0.3)"/>
    <rect x="120" y="60" width="20" height="20" rx="4" fill="rgba(255,255,255,0.1)"/>
    <rect x="150" y="60" width="20" height="20" rx="4" fill="rgba(255,255,255,0.05)"/>
    
    <!-- Row 3 -->
    <rect x="30" y="90" width="20" height="20" rx="4" fill="rgba(255,255,255,0.6)"/>
    <rect x="60" y="90" width="20" height="20" rx="4" fill="rgba(255,255,255,0.4)"/>
    <rect x="90" y="90" width="20" height="20" rx="4" fill="rgba(255,255,255,0.2)"/>
    <rect x="120" y="90" width="20" height="20" rx="4" fill="rgba(255,255,255,0.1)"/>
    <rect x="150" y="90" width="20" height="20" rx="4" fill="rgba(255,255,255,0.05)"/>
    
    <!-- Row 4 -->
    <rect x="30" y="120" width="20" height="20" rx="4" fill="rgba(255,255,255,0.5)"/>
    <rect x="60" y="120" width="20" height="20" rx="4" fill="rgba(255,255,255,0.3)"/>
    <rect x="90" y="120" width="20" height="20" rx="4" fill="rgba(255,255,255,0.1)"/>
    <rect x="120" y="120" width="20" height="20" rx="4" fill="rgba(255,255,255,0.05)"/>
    <rect x="150" y="120" width="20" height="20" rx="4" fill="rgba(255,255,255,0.02)"/>
    
    <!-- Row 5 -->
    <rect x="30" y="150" width="20" height="20" rx="4" fill="rgba(255,255,255,0.4)"/>
    <rect x="60" y="150" width="20" height="20" rx="4" fill="rgba(255,255,255,0.2)"/>
    <rect x="90" y="150" width="20" height="20" rx="4" fill="rgba(255,255,255,0.1)"/>
    <rect x="120" y="150" width="20" height="20" rx="4" fill="rgba(255,255,255,0.05)"/>
    <rect x="150" y="150" width="20" height="20" rx="4" fill="rgba(255,255,255,0.02)"/>
  </g>
  
  <!-- GitHub icon in center -->
  <circle cx="100" cy="100" r="25" fill="rgba(255,255,255,0.9)"/>
  <path d="M100 85c-8.3 0-15 6.7-15 15 0 6.6 4.3 12.2 10.3 14.2.8.1 1-.3 1-.7v-2.6c-4.2.9-5.1-2-5.1-2-.7-1.7-1.7-2.2-1.7-2.2-1.4-.9.1-.9.1-.9 1.5.1 2.3 1.5 2.3 1.5 1.3 2.3 3.5 1.6 4.4 1.2.1-.9.5-1.6 1-2.1-3.6-.4-7.4-1.8-7.4-8.1 0-1.8.6-3.3 1.7-4.4-.2-.4-.7-2.1.2-4.3 0 0 1.4-.4 4.5 1.7 1.3-.4 2.7-.6 4.1-.6 1.4 0 2.8.2 4.1.6 3.1-2.1 4.5-1.7 4.5-1.7.9 2.2.3 3.9.2 4.3 1 1.1 1.7 2.6 1.7 4.4 0 6.3-3.8 7.7-7.4 8.1.6.5 1.1 1.5 1.1 3v4.4c0 .4.3.9 1.1.7 6-2 10.3-7.6 10.3-14.2 0-8.3-6.7-15-15-15z" fill="#0a0f1a"/>
  
  <defs>
    <linearGradient id="gradient" x1="0%" y1="0%" x2="100%" y2="100%">
      <stop offset="0%" style="stop-color:#ff2db3;stop-opacity:1" />
      <stop offset="100%" style="stop-color:#8a2be2;stop-opacity:1" />
    </linearGradient>
  </defs>
</svg>
